<?xml version="1.0" standalone="no"?>
<!DOCTYPE svg PUBLIC "-//W3C//DTD SVG 20010904//EN"
 "http://www.w3.org/TR/2001/REC-SVG-20010904/DTD/svg10.dtd">
<svg version="1.0" xmlns="http://www.w3.org/2000/svg"
 width="200.000000pt" height="200.000000pt" viewBox="0 0 200.000000 200.000000"
 preserveAspectRatio="xMidYMid meet">
<metadata>
Created by potrace 1.14, written by Peter Selinger 2001-2017
</metadata>
<g transform="translate(0.000000,200.000000) scale(0.100000,-0.100000)"
fill="#000000" stroke="none">
<path d="M12 1548 c-19 -19 -17 -1081 2 -1097 9 -8 173 -10 592 -9 l579 3 0
555 0 555 -580 3 c-444 2 -584 -1 -593 -10z m539 -249 c68 -32 129 -91 161
-154 l24 -46 22 31 c71 95 243 94 315 -2 103 -136 10 -329 -159 -328 -59 0
-123 28 -152 65 -12 16 -24 26 -26 24 -2 -2 -15 -26 -29 -54 -33 -66 -89 -118
-162 -152 -56 -26 -70 -28 -220 -31 -149 -4 -162 -3 -185 16 l-25 20 -3 294
c-3 289 -2 295 19 322 l21 27 172 -3 c161 -3 174 -5 227 -29z"/>
<path d="M265 1188 c-3 -7 -4 -101 -3 -208 l3 -195 86 0 c118 0 172 27 212
105 24 45 28 65 25 111 -5 71 -34 127 -87 164 -37 26 -51 30 -136 33 -75 3
-96 1 -100 -10z"/>
<path d="M846 1059 c-35 -41 -34 -83 3 -120 61 -60 156 -23 156 61 0 55 -37
90 -95 90 -30 0 -43 -6 -64 -31z"/>
<path d="M1342 1258 c-33 -33 -4 -68 55 -68 l43 0 0 -199 0 -200 -46 -3 c-54
-3 -77 -26 -58 -56 9 -14 30 -17 130 -20 143 -3 164 1 164 31 0 34 -19 47 -67
47 l-43 0 0 200 0 200 39 0 c22 0 46 3 55 6 19 7 21 45 4 62 -17 17 -259 17
-276 0z"/>
<path d="M1704 1246 c-14 -37 0 -51 54 -54 l52 -3 0 -229 c0 -216 1 -230 19
-240 25 -13 27 -13 45 6 14 13 16 49 16 239 l0 224 53 3 c50 3 52 4 52 33 l0
30 -143 3 c-118 2 -143 0 -148 -12z"/>
</g>
</svg>
